<svg xmlns="http://www.w3.org/2000/svg" xmlns:xlink="http://www.w3.org/1999/xlink" width="500" zoomAndPan="magnify" viewBox="0 0 375 374.999991" height="500" preserveAspectRatio="xMidYMid meet" version="1.0"><defs><clipPath id="a00abe9ee5"><path d="M 69 48.210938 L 252 48.210938 L 252 109 L 69 109 Z M 69 48.210938 " clip-rule="nonzero"/></clipPath><clipPath id="98640dfc29"><path d="M 107 105 L 258.503906 105 L 258.503906 326.460938 L 107 326.460938 Z M 107 105 " clip-rule="nonzero"/></clipPath></defs><g clip-path="url(#a00abe9ee5)"><path fill="#00adef" d="M 251.152344 79.394531 C 250.957031 82.429688 248.835938 85.007812 245.972656 86.046875 L 186.027344 107.757812 C 185.199219 108.058594 184.335938 108.210938 183.460938 108.210938 C 182.597656 108.210938 181.726562 108.058594 180.902344 107.757812 L 125.121094 87.558594 C 123.359375 86.914062 122.496094 84.890625 123.320312 83.15625 C 124.035156 81.640625 125.859375 80.996094 127.4375 81.570312 L 183.085938 101.722656 C 183.332031 101.8125 183.597656 101.8125 183.839844 101.722656 L 244.015625 79.925781 C 244.613281 79.710938 244.742188 79.246094 244.742188 78.898438 C 244.746094 78.609375 244.660156 78.09375 244.035156 77.855469 L 183.855469 54.878906 C 183.605469 54.78125 183.324219 54.78125 183.070312 54.878906 L 141.457031 70.765625 C 142.9375 71.292969 144.457031 71.871094 146.003906 72.496094 C 168.085938 81.382812 183.210938 73.910156 188.652344 70.324219 C 189.183594 69.96875 189.796875 69.796875 190.40625 69.796875 C 191.292969 69.796875 192.171875 70.167969 192.800781 70.878906 C 194.105469 72.347656 193.792969 74.621094 192.148438 75.695312 C 185.527344 80.035156 168.253906 88.371094 143.609375 78.453125 C 109.085938 64.554688 95.511719 76.476562 91.199219 82.410156 L 95.152344 84.804688 L 85.457031 100.4375 C 83.003906 104.390625 77.863281 105.714844 73.808594 103.425781 C 69.515625 101.011719 68.089844 95.515625 70.660156 91.316406 L 80.199219 75.746094 L 85.773438 79.125 C 90.417969 72.707031 103.191406 60.902344 131.375 67.746094 L 180.78125 48.882812 C 182.507812 48.222656 184.414062 48.222656 186.148438 48.882812 L 246.324219 71.859375 C 249.433594 73.042969 251.367188 76.035156 251.152344 79.394531 Z M 251.152344 79.394531 " fill-opacity="1" fill-rule="nonzero"/></g><g clip-path="url(#98640dfc29)"><path fill="#00adef" d="M 212.304688 105.605469 L 186.027344 115.125 C 185.199219 115.421875 184.332031 115.574219 183.464844 115.574219 C 182.597656 115.574219 181.730469 115.421875 180.902344 115.125 L 153.703125 105.269531 C 141.453125 147.644531 107.898438 181.875 107.898438 181.875 C 117.574219 193.226562 127.070312 207.746094 135.957031 223.894531 L 162.902344 282.019531 C 167.929688 294.910156 175.976562 314.6875 179.699219 326.785156 L 178.863281 265.125 C 179.277344 255.992188 179.296875 209.957031 179.0625 189.761719 C 176.128906 188.269531 174.113281 185.230469 174.113281 181.714844 C 174.113281 176.789062 178.054688 172.792969 182.953125 172.691406 C 187.851562 172.792969 191.796875 176.789062 191.796875 181.714844 C 191.796875 185.230469 189.78125 188.269531 186.84375 189.761719 C 186.613281 209.957031 186.632812 255.988281 187.046875 265.125 L 186.210938 326.785156 C 189.933594 314.683594 197.980469 294.90625 203.007812 282.019531 L 229.953125 223.894531 C 238.839844 207.746094 248.332031 193.226562 258.011719 181.875 C 258.015625 181.878906 224.636719 147.828125 212.304688 105.605469 Z M 212.304688 105.605469 " fill-opacity="1" fill-rule="nonzero"/></g></svg>