<svg xmlns="http://www.w3.org/2000/svg" xmlns:xlink="http://www.w3.org/1999/xlink" width="500" zoomAndPan="magnify" viewBox="0 0 375 374.999991" height="500" preserveAspectRatio="xMidYMid meet" version="1.0"><defs><g/><clipPath id="ce24972fa7"><path d="M 44.109375 37.5 L 330.609375 37.5 L 330.609375 343.5 L 44.109375 343.5 Z M 44.109375 37.5 " clip-rule="nonzero"/></clipPath></defs><g clip-path="url(#ce24972fa7)"><path fill="#cc0000" d="M 330.609375 190.5 L 301.960938 190.5 L 301.960938 114 L 225.5625 37.503906 L 72.761719 37.503906 L 72.761719 190.5 L 44.109375 190.5 L 44.109375 286.121094 L 72.761719 286.121094 L 72.761719 343.496094 L 301.960938 343.496094 L 301.960938 286.121094 L 330.609375 286.121094 L 330.609375 190.5 " fill-opacity="1" fill-rule="nonzero"/></g><path fill="#ffffff" d="M 82.300781 333.933594 L 292.40625 333.933594 L 292.40625 286.121094 L 82.300781 286.121094 Z M 225.5625 51.039062 L 225.5625 114 L 288.441406 114 Z M 216.011719 123.5625 L 216.011719 47.066406 L 82.300781 47.066406 L 82.300781 190.5 L 292.40625 190.5 L 292.40625 123.5625 Z M 216.328125 236.972656 C 216.328125 226.851562 212.585938 219.789062 206.636719 215.363281 C 201.117188 211.191406 194.066406 209.238281 183.191406 209.238281 C 176.65625 209.238281 170.453125 209.667969 165.6875 210.433594 L 165.6875 266.738281 C 168.921875 267.167969 173.679688 267.597656 180.386719 267.597656 C 191.605469 267.597656 200.78125 265.210938 206.808594 260.191406 C 212.335938 255.511719 216.328125 247.941406 216.328125 236.972656 Z M 183.191406 257.472656 C 181.578125 257.472656 179.796875 257.472656 178.6875 257.21875 L 178.6875 219.699219 C 179.796875 219.449219 181.660156 219.191406 184.554688 219.191406 C 195.679688 219.191406 202.648438 225.484375 202.5625 237.398438 C 202.5625 251.089844 194.914062 257.554688 183.191406 257.472656 Z M 131.433594 246.753906 C 139.078125 246.753906 145.617188 244.878906 150.035156 240.710938 C 153.433594 237.480469 155.296875 232.71875 155.296875 227.101562 C 155.296875 221.488281 152.835938 216.726562 149.1875 213.832031 C 145.367188 210.769531 139.667969 209.238281 131.683594 209.238281 C 123.785156 209.238281 118.179688 209.75 114.175781 210.433594 L 114.175781 267 L 127.011719 267 L 127.011719 246.496094 C 128.203125 246.667969 129.726562 246.753906 131.433594 246.753906 Z M 127.011719 219.53125 C 127.941406 219.277344 129.726562 219.023438 132.363281 219.023438 C 138.820312 219.023438 142.472656 222.167969 142.472656 227.441406 C 142.472656 233.3125 138.222656 236.796875 131.347656 236.796875 C 129.472656 236.796875 128.113281 236.714844 127.011719 236.457031 Z M 261.96875 220.296875 L 261.96875 209.667969 L 226.96875 209.667969 L 226.96875 267 L 239.96875 267 L 239.96875 243.945312 L 260.527344 243.945312 L 260.527344 233.398438 L 239.96875 233.398438 L 239.96875 220.296875 L 261.96875 220.296875 " fill-opacity="1" fill-rule="nonzero"/><g fill="#ffffff" fill-opacity="1"><g transform="translate(184.490618, 169.574989)"><g><path d="M 2.109375 0.078125 C 1.804688 0.078125 1.566406 -0.00390625 1.390625 -0.171875 C 1.222656 -0.335938 1.140625 -0.5625 1.140625 -0.84375 C 1.140625 -1.113281 1.222656 -1.332031 1.390625 -1.5 C 1.566406 -1.675781 1.804688 -1.765625 2.109375 -1.765625 C 2.410156 -1.765625 2.644531 -1.679688 2.8125 -1.515625 C 2.988281 -1.347656 3.078125 -1.128906 3.078125 -0.859375 C 3.078125 -0.578125 2.988281 -0.347656 2.8125 -0.171875 C 2.632812 -0.00390625 2.398438 0.078125 2.109375 0.078125 Z M 2.109375 0.078125 "/></g></g></g></svg>