<svg xmlns="http://www.w3.org/2000/svg" xmlns:xlink="http://www.w3.org/1999/xlink" width="96" zoomAndPan="magnify" viewBox="0 0 72 72" height="96" preserveAspectRatio="xMidYMid meet" version="1.0"><defs><clipPath id="76407b1e97"><path d="M 35 46 L 57 46 L 57 65 L 35 65 Z M 35 46 " clip-rule="nonzero"/></clipPath><clipPath id="5982bbfc5f"><path d="M 45.535156 40.640625 L 67.871094 51.296875 L 56.25 75.667969 L 33.910156 65.011719 Z M 45.535156 40.640625 " clip-rule="nonzero"/></clipPath><clipPath id="d1c8936d49"><path d="M 45.535156 40.640625 L 67.871094 51.296875 L 56.25 75.667969 L 33.910156 65.011719 Z M 45.535156 40.640625 " clip-rule="nonzero"/></clipPath><clipPath id="4a752aa759"><path d="M 45.535156 40.640625 L 67.871094 51.296875 L 56.25 75.667969 L 33.910156 65.011719 Z M 45.535156 40.640625 " clip-rule="nonzero"/></clipPath><clipPath id="4cad3aa7b5"><path d="M 35 50 L 61 50 L 61 66 L 35 66 Z M 35 50 " clip-rule="nonzero"/></clipPath><clipPath id="2851f06dc5"><path d="M 45.535156 40.640625 L 67.871094 51.296875 L 56.25 75.667969 L 33.910156 65.011719 Z M 45.535156 40.640625 " clip-rule="nonzero"/></clipPath><clipPath id="df66abb8cd"><path d="M 45.535156 40.640625 L 67.871094 51.296875 L 56.25 75.667969 L 33.910156 65.011719 Z M 45.535156 40.640625 " clip-rule="nonzero"/></clipPath><clipPath id="87f29c346a"><path d="M 45.535156 40.640625 L 67.871094 51.296875 L 56.25 75.667969 L 33.910156 65.011719 Z M 45.535156 40.640625 " clip-rule="nonzero"/></clipPath><clipPath id="57197ed183"><path d="M 36 43 L 53 43 L 53 63 L 36 63 Z M 36 43 " clip-rule="nonzero"/></clipPath><clipPath id="a61ed9486f"><path d="M 45.535156 40.640625 L 67.871094 51.296875 L 56.25 75.667969 L 33.910156 65.011719 Z M 45.535156 40.640625 " clip-rule="nonzero"/></clipPath><clipPath id="883aba0d43"><path d="M 45.535156 40.640625 L 67.871094 51.296875 L 56.25 75.667969 L 33.910156 65.011719 Z M 45.535156 40.640625 " clip-rule="nonzero"/></clipPath><clipPath id="de09deed39"><path d="M 45.535156 40.640625 L 67.871094 51.296875 L 56.25 75.667969 L 33.910156 65.011719 Z M 45.535156 40.640625 " clip-rule="nonzero"/></clipPath><clipPath id="58ffbd0239"><path d="M 11 46 L 32 46 L 32 65 L 11 65 Z M 11 46 " clip-rule="nonzero"/></clipPath><clipPath id="412e9b07d6"><path d="M 0 51.152344 L 22.386719 40.597656 L 33.902344 65.015625 L 11.519531 75.574219 Z M 0 51.152344 " clip-rule="nonzero"/></clipPath><clipPath id="ea86d0dadd"><path d="M 22.289062 40.640625 L -0.09375 51.199219 L 11.421875 75.621094 L 33.808594 65.0625 Z M 22.289062 40.640625 " clip-rule="nonzero"/></clipPath><clipPath id="7d9406c089"><path d="M 22.289062 40.640625 L -0.09375 51.199219 L 11.421875 75.621094 L 33.808594 65.0625 Z M 22.289062 40.640625 " clip-rule="nonzero"/></clipPath><clipPath id="124f50ed8d"><path d="M 6 50 L 33 50 L 33 66 L 6 66 Z M 6 50 " clip-rule="nonzero"/></clipPath><clipPath id="37f2f192e7"><path d="M 0 51.152344 L 22.386719 40.597656 L 33.902344 65.015625 L 11.519531 75.574219 Z M 0 51.152344 " clip-rule="nonzero"/></clipPath><clipPath id="aa1b191d60"><path d="M 22.289062 40.640625 L -0.09375 51.199219 L 11.421875 75.621094 L 33.808594 65.0625 Z M 22.289062 40.640625 " clip-rule="nonzero"/></clipPath><clipPath id="d1378c7711"><path d="M 22.289062 40.640625 L -0.09375 51.199219 L 11.421875 75.621094 L 33.808594 65.0625 Z M 22.289062 40.640625 " clip-rule="nonzero"/></clipPath><clipPath id="1b2e523b64"><path d="M 15 43 L 32 43 L 32 63 L 15 63 Z M 15 43 " clip-rule="nonzero"/></clipPath><clipPath id="2044866184"><path d="M 0 51.152344 L 22.386719 40.597656 L 33.902344 65.015625 L 11.519531 75.574219 Z M 0 51.152344 " clip-rule="nonzero"/></clipPath><clipPath id="bd630833a1"><path d="M 22.289062 40.640625 L -0.09375 51.199219 L 11.421875 75.621094 L 33.808594 65.0625 Z M 22.289062 40.640625 " clip-rule="nonzero"/></clipPath><clipPath id="8a044422b9"><path d="M 22.289062 40.640625 L -0.09375 51.199219 L 11.421875 75.621094 L 33.808594 65.0625 Z M 22.289062 40.640625 " clip-rule="nonzero"/></clipPath><clipPath id="c473bda7b0"><path d="M 13 3.730469 L 48 3.730469 L 48 16 L 13 16 Z M 13 3.730469 " clip-rule="nonzero"/></clipPath><clipPath id="e55bea0bda"><path d="M 20 14 L 48.820312 14 L 48.820312 56.230469 L 20 56.230469 Z M 20 14 " clip-rule="nonzero"/></clipPath></defs><g clip-path="url(#76407b1e97)"><g clip-path="url(#5982bbfc5f)"><g clip-path="url(#d1c8936d49)"><g clip-path="url(#4a752aa759)"><path fill="#3871c1" d="M 56.695312 62.289062 L 55.300781 46.699219 C 55.300781 46.699219 53.726562 46.882812 51.871094 47.453125 L 52.007812 49.015625 C 52.511719 48.992188 53.042969 49.003906 53.597656 49.066406 L 54.792969 60.363281 C 54.792969 60.363281 41.917969 58.84375 35.988281 64.070312 C 35.988281 64.070312 43.40625 59.660156 56.695312 62.289062 " fill-opacity="1" fill-rule="nonzero"/></g></g></g></g><g clip-path="url(#4cad3aa7b5)"><g clip-path="url(#2851f06dc5)"><g clip-path="url(#df66abb8cd)"><g clip-path="url(#87f29c346a)"><path fill="#2e3192" d="M 59.503906 50.304688 C 59.503906 50.304688 57.933594 50.488281 56.074219 51.054688 L 56.214844 52.617188 C 56.714844 52.59375 57.246094 52.609375 57.800781 52.667969 L 59 63.964844 C 59 63.964844 43.734375 60.503906 35.367188 65.707031 C 35.367188 65.707031 44.601562 62.519531 60.902344 65.894531 L 59.503906 50.304688 " fill-opacity="1" fill-rule="nonzero"/></g></g></g></g><g clip-path="url(#57197ed183)"><g clip-path="url(#a61ed9486f)"><g clip-path="url(#883aba0d43)"><g clip-path="url(#de09deed39)"><path fill="#00adef" d="M 36.71875 62.136719 C 36.71875 62.136719 43.074219 57.121094 52.515625 58.894531 L 51.117188 43.304688 C 51.117188 43.304688 44.027344 44.128906 42.160156 47.738281 C 42.160156 47.738281 44.945312 45.179688 49.414062 45.671875 L 50.613281 56.96875 C 50.613281 56.96875 41.484375 56.617188 36.71875 62.136719 " fill-opacity="1" fill-rule="nonzero"/></g></g></g></g><g clip-path="url(#58ffbd0239)"><g clip-path="url(#412e9b07d6)"><g clip-path="url(#ea86d0dadd)"><g clip-path="url(#7d9406c089)"><path fill="#3871c1" d="M 11.03125 62.242188 L 12.496094 46.65625 C 12.496094 46.65625 14.070312 46.847656 15.925781 47.425781 L 15.777344 48.984375 C 15.277344 48.960938 14.746094 48.972656 14.191406 49.03125 L 12.945312 60.320312 C 12.945312 60.320312 25.828125 58.859375 31.734375 64.109375 C 31.734375 64.109375 24.335938 59.667969 11.03125 62.242188 " fill-opacity="1" fill-rule="nonzero"/></g></g></g></g><g clip-path="url(#124f50ed8d)"><g clip-path="url(#37f2f192e7)"><g clip-path="url(#aa1b191d60)"><g clip-path="url(#d1378c7711)"><path fill="#2e3192" d="M 8.277344 50.242188 C 8.277344 50.242188 9.847656 50.433594 11.703125 51.011719 L 11.558594 52.570312 C 11.054688 52.546875 10.527344 52.558594 9.96875 52.617188 L 8.722656 63.90625 C 8.722656 63.90625 24 60.511719 32.347656 65.753906 C 32.347656 65.753906 23.128906 62.523438 6.8125 65.824219 L 8.277344 50.242188 " fill-opacity="1" fill-rule="nonzero"/></g></g></g></g><g clip-path="url(#1b2e523b64)"><g clip-path="url(#2044866184)"><g clip-path="url(#bd630833a1)"><g clip-path="url(#8a044422b9)"><path fill="#00adef" d="M 31.011719 62.175781 C 31.011719 62.175781 24.679688 57.128906 15.230469 58.863281 L 16.695312 43.28125 C 16.695312 43.28125 23.78125 44.136719 25.636719 47.753906 C 25.636719 47.753906 22.859375 45.183594 18.386719 45.65625 L 17.140625 56.945312 C 17.140625 56.945312 26.269531 56.636719 31.011719 62.175781 " fill-opacity="1" fill-rule="nonzero"/></g></g></g></g><g clip-path="url(#c473bda7b0)"><path fill="#00adef" d="M 47.417969 9.621094 C 47.378906 10.191406 46.976562 10.679688 46.4375 10.875 L 35.113281 14.976562 C 34.957031 15.035156 34.792969 15.0625 34.628906 15.0625 C 34.464844 15.0625 34.300781 15.035156 34.148438 14.976562 L 23.609375 11.160156 C 23.277344 11.039062 23.113281 10.65625 23.269531 10.332031 C 23.40625 10.042969 23.75 9.921875 24.046875 10.03125 L 34.558594 13.835938 C 34.605469 13.855469 34.65625 13.855469 34.703125 13.835938 L 46.066406 9.71875 C 46.179688 9.679688 46.207031 9.589844 46.207031 9.527344 C 46.207031 9.472656 46.1875 9.375 46.070312 9.328125 L 34.703125 4.988281 C 34.65625 4.96875 34.605469 4.96875 34.554688 4.988281 L 26.695312 7.988281 C 26.976562 8.089844 27.261719 8.199219 27.554688 8.316406 C 31.726562 9.996094 34.582031 8.585938 35.609375 7.90625 C 35.710938 7.839844 35.828125 7.808594 35.941406 7.808594 C 36.109375 7.808594 36.273438 7.878906 36.394531 8.011719 C 36.640625 8.289062 36.582031 8.71875 36.269531 8.921875 C 35.019531 9.742188 31.757812 11.316406 27.101562 9.441406 C 20.582031 6.816406 18.015625 9.070312 17.203125 10.1875 L 17.949219 10.640625 L 16.117188 13.59375 C 15.65625 14.339844 14.683594 14.589844 13.917969 14.160156 C 13.105469 13.703125 12.835938 12.664062 13.324219 11.871094 L 15.125 8.929688 L 16.179688 9.570312 C 17.054688 8.355469 19.46875 6.125 24.792969 7.417969 L 34.125 3.855469 C 34.449219 3.730469 34.808594 3.730469 35.136719 3.855469 L 46.503906 8.195312 C 47.089844 8.421875 47.457031 8.984375 47.417969 9.621094 Z M 47.417969 9.621094 " fill-opacity="1" fill-rule="nonzero"/></g><g clip-path="url(#e55bea0bda)"><path fill="#00adef" d="M 40.078125 14.570312 L 35.113281 16.367188 C 34.957031 16.425781 34.792969 16.453125 34.628906 16.453125 C 34.464844 16.453125 34.300781 16.425781 34.148438 16.367188 L 29.007812 14.507812 C 26.695312 22.511719 20.355469 28.976562 20.355469 28.976562 C 22.183594 31.121094 23.976562 33.863281 25.65625 36.914062 L 30.746094 47.890625 C 31.695312 50.328125 33.214844 54.0625 33.917969 56.347656 L 33.761719 44.703125 C 33.839844 42.976562 33.84375 34.28125 33.800781 30.464844 C 33.246094 30.183594 32.863281 29.609375 32.863281 28.945312 C 32.863281 28.015625 33.609375 27.261719 34.535156 27.242188 C 35.460938 27.261719 36.203125 28.015625 36.203125 28.945312 C 36.203125 29.609375 35.824219 30.183594 35.269531 30.464844 C 35.226562 34.28125 35.230469 42.976562 35.308594 44.703125 L 35.148438 56.347656 C 35.851562 54.0625 37.371094 50.328125 38.320312 47.890625 L 43.410156 36.914062 C 45.089844 33.863281 46.882812 31.121094 48.710938 28.976562 C 48.710938 28.976562 42.40625 22.546875 40.078125 14.570312 Z M 40.078125 14.570312 " fill-opacity="1" fill-rule="nonzero"/></g></svg>