<svg xmlns="http://www.w3.org/2000/svg" xmlns:xlink="http://www.w3.org/1999/xlink" width="96" zoomAndPan="magnify" viewBox="0 0 72 72" height="96" preserveAspectRatio="xMidYMid meet" version="1.0"><defs><g/><clipPath id="a1ef9a587d"><path d="M 9.089844 2.675781 L 53 2.675781 L 53 18 L 9.089844 18 Z M 9.089844 2.675781 " clip-rule="nonzero"/></clipPath><clipPath id="97cd84169c"><path d="M 18 16 L 54.839844 16 L 54.839844 69.425781 L 18 69.425781 Z M 18 16 " clip-rule="nonzero"/></clipPath></defs><g clip-path="url(#a1ef9a587d)"><path fill="#00adef" d="M 52.902344 10.136719 C 52.855469 10.863281 52.347656 11.480469 51.664062 11.726562 L 37.324219 16.921875 C 37.125 16.996094 36.917969 17.03125 36.707031 17.03125 C 36.5 17.03125 36.292969 16.996094 36.097656 16.921875 L 22.75 12.089844 C 22.328125 11.9375 22.125 11.453125 22.320312 11.035156 C 22.492188 10.675781 22.929688 10.519531 23.304688 10.65625 L 36.617188 15.480469 C 36.675781 15.5 36.742188 15.5 36.796875 15.480469 L 51.195312 10.265625 C 51.339844 10.210938 51.371094 10.101562 51.371094 10.019531 C 51.371094 9.949219 51.347656 9.824219 51.199219 9.769531 L 36.804688 4.273438 C 36.742188 4.25 36.675781 4.25 36.613281 4.273438 L 26.660156 8.074219 C 27.011719 8.199219 27.375 8.335938 27.746094 8.488281 C 33.03125 10.613281 36.648438 8.824219 37.949219 7.964844 C 38.078125 7.882812 38.222656 7.839844 38.371094 7.839844 C 38.582031 7.839844 38.792969 7.929688 38.941406 8.097656 C 39.253906 8.449219 39.179688 8.996094 38.785156 9.25 C 37.203125 10.289062 33.070312 12.285156 27.175781 9.910156 C 18.914062 6.585938 15.667969 9.4375 14.636719 10.859375 L 15.582031 11.429688 L 13.261719 15.171875 C 12.675781 16.117188 11.445312 16.433594 10.476562 15.886719 C 9.449219 15.308594 9.105469 13.992188 9.722656 12.988281 L 12.003906 9.265625 L 13.335938 10.074219 C 14.449219 8.539062 17.503906 5.714844 24.246094 7.351562 L 36.066406 2.835938 C 36.480469 2.679688 36.9375 2.679688 37.351562 2.835938 L 51.75 8.335938 C 52.492188 8.617188 52.953125 9.332031 52.902344 10.136719 Z M 52.902344 10.136719 " fill-opacity="1" fill-rule="nonzero"/></g><g clip-path="url(#97cd84169c)"><path fill="#00adef" d="M 43.609375 16.40625 L 37.324219 18.683594 C 37.125 18.757812 36.917969 18.792969 36.710938 18.792969 C 36.5 18.792969 36.292969 18.757812 36.097656 18.683594 L 29.589844 16.328125 C 26.65625 26.464844 18.628906 34.652344 18.628906 34.652344 C 20.945312 37.371094 23.21875 40.84375 25.34375 44.707031 L 31.789062 58.613281 C 32.992188 61.695312 34.917969 66.429688 35.808594 69.324219 L 35.609375 54.570312 C 35.707031 52.386719 35.710938 41.375 35.65625 36.542969 C 34.953125 36.183594 34.472656 35.457031 34.472656 34.617188 C 34.472656 33.4375 35.414062 32.480469 36.585938 32.457031 C 37.757812 32.480469 38.703125 33.4375 38.703125 34.617188 C 38.703125 35.457031 38.21875 36.183594 37.519531 36.542969 C 37.460938 41.375 37.46875 52.386719 37.566406 54.570312 L 37.367188 69.324219 C 38.257812 66.429688 40.183594 61.695312 41.382812 58.613281 L 47.832031 44.707031 C 49.957031 40.84375 52.230469 37.371094 54.542969 34.652344 C 54.542969 34.65625 46.558594 26.507812 43.609375 16.40625 Z M 43.609375 16.40625 " fill-opacity="1" fill-rule="nonzero"/></g><g fill="#000000" fill-opacity="1"><g transform="translate(35.999999, 34.900002)"><g><path d="M 0.53125 0.015625 C 0.457031 0.015625 0.394531 -0.00390625 0.34375 -0.046875 C 0.300781 -0.0859375 0.28125 -0.140625 0.28125 -0.203125 C 0.28125 -0.273438 0.300781 -0.332031 0.34375 -0.375 C 0.394531 -0.414062 0.457031 -0.4375 0.53125 -0.4375 C 0.601562 -0.4375 0.660156 -0.414062 0.703125 -0.375 C 0.742188 -0.332031 0.765625 -0.28125 0.765625 -0.21875 C 0.765625 -0.144531 0.742188 -0.0859375 0.703125 -0.046875 C 0.660156 -0.00390625 0.601562 0.015625 0.53125 0.015625 Z M 0.53125 0.015625 "/></g></g></g></svg>