<svg xmlns="http://www.w3.org/2000/svg" xmlns:xlink="http://www.w3.org/1999/xlink" width="500" zoomAndPan="magnify" viewBox="0 0 375 374.999991" height="500" preserveAspectRatio="xMidYMid meet" version="1.0"><defs><clipPath id="ee640d6a4f"><path d="M 195 192 L 275 192 L 275 260 L 195 260 Z M 195 192 " clip-rule="nonzero"/></clipPath><clipPath id="0188027f93"><path d="M 232.246094 168.84375 L 317.542969 209.523438 L 272.664062 303.621094 L 187.367188 262.9375 Z M 232.246094 168.84375 " clip-rule="nonzero"/></clipPath><clipPath id="836f412c01"><path d="M 232.246094 168.84375 L 317.542969 209.523438 L 272.664062 303.621094 L 187.367188 262.9375 Z M 232.246094 168.84375 " clip-rule="nonzero"/></clipPath><clipPath id="f49668c45b"><path d="M 232.246094 168.84375 L 317.542969 209.523438 L 272.664062 303.621094 L 187.367188 262.9375 Z M 232.246094 168.84375 " clip-rule="nonzero"/></clipPath><clipPath id="cb5761deef"><path d="M 192 205 L 291 205 L 291 266 L 192 266 Z M 192 205 " clip-rule="nonzero"/></clipPath><clipPath id="d41eee56f3"><path d="M 232.246094 168.84375 L 317.542969 209.523438 L 272.664062 303.621094 L 187.367188 262.9375 Z M 232.246094 168.84375 " clip-rule="nonzero"/></clipPath><clipPath id="ea751d012e"><path d="M 232.246094 168.84375 L 317.542969 209.523438 L 272.664062 303.621094 L 187.367188 262.9375 Z M 232.246094 168.84375 " clip-rule="nonzero"/></clipPath><clipPath id="0b7a893c76"><path d="M 232.246094 168.84375 L 317.542969 209.523438 L 272.664062 303.621094 L 187.367188 262.9375 Z M 232.246094 168.84375 " clip-rule="nonzero"/></clipPath><clipPath id="83f5b17e8d"><path d="M 198 179 L 259 179 L 259 252 L 198 252 Z M 198 179 " clip-rule="nonzero"/></clipPath><clipPath id="d90b30c95e"><path d="M 232.246094 168.84375 L 317.542969 209.523438 L 272.664062 303.621094 L 187.367188 262.9375 Z M 232.246094 168.84375 " clip-rule="nonzero"/></clipPath><clipPath id="b01e848260"><path d="M 232.246094 168.84375 L 317.542969 209.523438 L 272.664062 303.621094 L 187.367188 262.9375 Z M 232.246094 168.84375 " clip-rule="nonzero"/></clipPath><clipPath id="efbe40aab6"><path d="M 232.246094 168.84375 L 317.542969 209.523438 L 272.664062 303.621094 L 187.367188 262.9375 Z M 232.246094 168.84375 " clip-rule="nonzero"/></clipPath><clipPath id="186171a63b"><path d="M 100 191 L 180 191 L 180 260 L 100 260 Z M 100 191 " clip-rule="nonzero"/></clipPath><clipPath id="6bf7572f0c"><path d="M 57.722656 209.132812 L 143.195312 168.824219 L 187.664062 263.113281 L 102.191406 303.421875 Z M 57.722656 209.132812 " clip-rule="nonzero"/></clipPath><clipPath id="3672d8e51b"><path d="M 143.152344 168.84375 L 57.679688 209.152344 L 102.148438 303.445312 L 187.621094 263.132812 Z M 143.152344 168.84375 " clip-rule="nonzero"/></clipPath><clipPath id="6bd4f9f65d"><path d="M 143.152344 168.84375 L 57.679688 209.152344 L 102.148438 303.445312 L 187.621094 263.132812 Z M 143.152344 168.84375 " clip-rule="nonzero"/></clipPath><clipPath id="d64a3b06a3"><path d="M 84 205 L 183 205 L 183 266 L 84 266 Z M 84 205 " clip-rule="nonzero"/></clipPath><clipPath id="2813c395ab"><path d="M 57.722656 209.132812 L 143.195312 168.824219 L 187.664062 263.113281 L 102.191406 303.421875 Z M 57.722656 209.132812 " clip-rule="nonzero"/></clipPath><clipPath id="6b8c77ed23"><path d="M 143.152344 168.84375 L 57.679688 209.152344 L 102.148438 303.445312 L 187.621094 263.132812 Z M 143.152344 168.84375 " clip-rule="nonzero"/></clipPath><clipPath id="ef7dfe90c3"><path d="M 143.152344 168.84375 L 57.679688 209.152344 L 102.148438 303.445312 L 187.621094 263.132812 Z M 143.152344 168.84375 " clip-rule="nonzero"/></clipPath><clipPath id="71ca300398"><path d="M 116 178 L 177 178 L 177 252 L 116 252 Z M 116 178 " clip-rule="nonzero"/></clipPath><clipPath id="397cfcdea7"><path d="M 57.722656 209.132812 L 143.195312 168.824219 L 187.664062 263.113281 L 102.191406 303.421875 Z M 57.722656 209.132812 " clip-rule="nonzero"/></clipPath><clipPath id="d422affef2"><path d="M 143.152344 168.84375 L 57.679688 209.152344 L 102.148438 303.445312 L 187.621094 263.132812 Z M 143.152344 168.84375 " clip-rule="nonzero"/></clipPath><clipPath id="6bd873487c"><path d="M 143.152344 168.84375 L 57.679688 209.152344 L 102.148438 303.445312 L 187.621094 263.132812 Z M 143.152344 168.84375 " clip-rule="nonzero"/></clipPath><clipPath id="2d4cf198a8"><path d="M 107 27.363281 L 240 27.363281 L 240 71 L 107 71 Z M 107 27.363281 " clip-rule="nonzero"/></clipPath><clipPath id="05523958a5"><path d="M 135 68 L 244.855469 68 L 244.855469 229.113281 L 135 229.113281 Z M 135 68 " clip-rule="nonzero"/></clipPath></defs><rect x="-37.5" width="450" fill="#ffffff" y="-37.499999" height="449.999989" fill-opacity="1"/><rect x="-37.5" width="450" fill="#000000" y="-37.499999" height="449.999989" fill-opacity="1"/><g clip-path="url(#ee640d6a4f)"><g clip-path="url(#0188027f93)"><g clip-path="url(#836f412c01)"><g clip-path="url(#f49668c45b)"><path fill="#3871c1" d="M 274.605469 252.070312 L 269.515625 192.023438 C 269.515625 192.023438 263.496094 192.757812 256.375 194.980469 L 256.882812 200.992188 C 258.804688 200.898438 260.832031 200.941406 262.960938 201.167969 L 267.355469 244.679688 C 267.355469 244.679688 218.101562 239.042969 195.328125 259.273438 C 195.328125 259.273438 223.78125 242.152344 274.605469 252.070312 " fill-opacity="1" fill-rule="nonzero"/></g></g></g></g><g clip-path="url(#cb5761deef)"><g clip-path="url(#d41eee56f3)"><g clip-path="url(#ea751d012e)"><g clip-path="url(#0b7a893c76)"><path fill="#2e3192" d="M 285.546875 205.839844 C 285.546875 205.839844 279.527344 206.570312 272.40625 208.796875 L 272.914062 214.808594 C 274.832031 214.714844 276.863281 214.757812 278.992188 214.984375 L 283.382812 258.492188 C 283.382812 258.492188 225.035156 245.402344 192.933594 265.597656 C 192.933594 265.597656 228.316406 253.15625 290.632812 265.886719 L 285.546875 205.839844 " fill-opacity="1" fill-rule="nonzero"/></g></g></g></g><g clip-path="url(#83f5b17e8d)"><g clip-path="url(#d90b30c95e)"><g clip-path="url(#b01e848260)"><g clip-path="url(#efbe40aab6)"><path fill="#00adef" d="M 198.152344 251.816406 C 198.152344 251.816406 222.554688 232.375 258.65625 239.0625 L 253.570312 179.015625 C 253.570312 179.015625 226.417969 182.304688 219.207031 196.238281 C 219.207031 196.238281 229.917969 186.339844 247.011719 188.160156 L 251.40625 231.667969 C 251.40625 231.667969 216.484375 230.46875 198.152344 251.816406 " fill-opacity="1" fill-rule="nonzero"/></g></g></g></g><g clip-path="url(#186171a63b)"><g clip-path="url(#6bf7572f0c)"><g clip-path="url(#3672d8e51b)"><g clip-path="url(#6bd4f9f65d)"><path fill="#3871c1" d="M 100.433594 251.886719 L 105.78125 191.863281 C 105.78125 191.863281 111.800781 192.621094 118.914062 194.875 L 118.378906 200.886719 C 116.457031 200.78125 114.429688 200.816406 112.300781 201.035156 L 107.714844 244.523438 C 107.714844 244.523438 156.992188 239.105469 179.675781 259.433594 C 179.675781 259.433594 151.300781 242.191406 100.433594 251.886719 " fill-opacity="1" fill-rule="nonzero"/></g></g></g></g><g clip-path="url(#d64a3b06a3)"><g clip-path="url(#2813c395ab)"><g clip-path="url(#6b8c77ed23)"><g clip-path="url(#ef7dfe90c3)"><path fill="#2e3192" d="M 89.691406 205.609375 C 89.691406 205.609375 95.710938 206.363281 102.824219 208.621094 L 102.289062 214.632812 C 100.367188 214.527344 98.339844 214.5625 96.210938 214.777344 L 91.628906 258.269531 C 91.628906 258.269531 150.03125 245.429688 182.046875 265.769531 C 182.046875 265.769531 146.71875 253.171875 84.34375 265.632812 L 89.691406 205.609375 " fill-opacity="1" fill-rule="nonzero"/></g></g></g></g><g clip-path="url(#71ca300398)"><g clip-path="url(#397cfcdea7)"><g clip-path="url(#d422affef2)"><g clip-path="url(#6bd873487c)"><path fill="#00adef" d="M 176.886719 251.964844 C 176.886719 251.964844 152.570312 232.417969 116.4375 238.945312 L 121.785156 178.921875 C 121.785156 178.921875 148.921875 182.332031 156.070312 196.292969 C 156.070312 196.292969 145.40625 186.351562 128.304688 188.09375 L 123.722656 231.585938 C 123.722656 231.585938 158.644531 230.535156 176.886719 251.964844 " fill-opacity="1" fill-rule="nonzero"/></g></g></g></g><g clip-path="url(#2d4cf198a8)"><path fill="#00adef" d="M 239.472656 49.945312 C 239.328125 52.144531 237.792969 54.011719 235.71875 54.761719 L 192.3125 70.484375 C 191.710938 70.699219 191.085938 70.8125 190.453125 70.8125 C 189.828125 70.8125 189.199219 70.699219 188.601562 70.484375 L 148.207031 55.855469 C 146.933594 55.390625 146.308594 53.925781 146.902344 52.667969 C 147.421875 51.570312 148.742188 51.105469 149.886719 51.519531 L 190.183594 66.113281 C 190.359375 66.175781 190.550781 66.175781 190.726562 66.113281 L 234.304688 50.328125 C 234.734375 50.175781 234.828125 49.835938 234.828125 49.585938 C 234.832031 49.375 234.769531 49.003906 234.316406 48.832031 L 190.738281 32.191406 C 190.558594 32.121094 190.351562 32.121094 190.171875 32.191406 L 160.039062 43.695312 C 161.109375 44.078125 162.210938 44.496094 163.332031 44.949219 C 179.320312 51.386719 190.273438 45.972656 194.210938 43.375 C 194.597656 43.121094 195.042969 42.996094 195.480469 42.996094 C 196.125 42.996094 196.761719 43.265625 197.21875 43.777344 C 198.160156 44.839844 197.933594 46.488281 196.746094 47.265625 C 191.949219 50.410156 179.441406 56.445312 161.597656 49.261719 C 136.597656 39.199219 126.765625 47.832031 123.644531 52.128906 L 126.507812 53.863281 L 119.488281 65.179688 C 117.710938 68.046875 113.988281 69.003906 111.050781 67.347656 C 107.945312 65.597656 106.910156 61.617188 108.773438 58.578125 L 115.679688 47.304688 L 119.71875 49.75 C 123.078125 45.101562 132.328125 36.554688 152.738281 41.511719 L 188.515625 27.851562 C 189.765625 27.371094 191.144531 27.371094 192.398438 27.851562 L 235.976562 44.488281 C 238.222656 45.347656 239.625 47.511719 239.472656 49.945312 Z M 239.472656 49.945312 " fill-opacity="1" fill-rule="nonzero"/></g><g clip-path="url(#05523958a5)"><path fill="#00adef" d="M 211.339844 68.925781 L 192.3125 75.816406 C 191.710938 76.035156 191.085938 76.140625 190.457031 76.140625 C 189.828125 76.140625 189.199219 76.035156 188.601562 75.816406 L 168.90625 68.683594 C 160.035156 99.367188 135.734375 124.152344 135.734375 124.152344 C 142.746094 132.375 149.621094 142.886719 156.054688 154.578125 L 175.566406 196.667969 C 179.207031 206.003906 185.035156 220.324219 187.730469 229.085938 L 187.125 184.4375 C 187.425781 177.820312 187.4375 144.488281 187.269531 129.863281 C 185.144531 128.785156 183.683594 126.582031 183.683594 124.035156 C 183.683594 120.472656 186.539062 117.578125 190.085938 117.503906 C 193.632812 117.578125 196.488281 120.46875 196.488281 124.035156 C 196.488281 126.582031 195.03125 128.785156 192.90625 129.863281 C 192.734375 144.488281 192.75 177.820312 193.050781 184.4375 L 192.445312 229.085938 C 195.140625 220.324219 200.96875 206 204.609375 196.667969 L 224.117188 154.578125 C 230.554688 142.886719 237.429688 132.375 244.4375 124.152344 C 244.441406 124.15625 220.269531 99.496094 211.339844 68.925781 Z M 211.339844 68.925781 " fill-opacity="1" fill-rule="nonzero"/></g></svg>