<svg xmlns="http://www.w3.org/2000/svg" xmlns:xlink="http://www.w3.org/1999/xlink" width="500" zoomAndPan="magnify" viewBox="0 0 375 374.999991" height="500" preserveAspectRatio="xMidYMid meet" version="1.0"><defs><clipPath id="f72c3c20f4"><path d="M 205 247 L 320 247 L 320 344 L 205 344 Z M 205 247 " clip-rule="nonzero"/></clipPath><clipPath id="a960f2b2e6"><path d="M 258.464844 214.601562 L 380.3125 272.71875 L 316.386719 406.753906 L 194.535156 348.636719 Z M 258.464844 214.601562 " clip-rule="nonzero"/></clipPath><clipPath id="c461b4156d"><path d="M 258.464844 214.601562 L 380.3125 272.71875 L 316.386719 406.753906 L 194.535156 348.636719 Z M 258.464844 214.601562 " clip-rule="nonzero"/></clipPath><clipPath id="c067a98940"><path d="M 258.464844 214.601562 L 380.3125 272.71875 L 316.386719 406.753906 L 194.535156 348.636719 Z M 258.464844 214.601562 " clip-rule="nonzero"/></clipPath><clipPath id="6e5613b5a2"><path d="M 202 267 L 342 267 L 342 353 L 202 353 Z M 202 267 " clip-rule="nonzero"/></clipPath><clipPath id="eb615ecae1"><path d="M 258.464844 214.601562 L 380.3125 272.71875 L 316.386719 406.753906 L 194.535156 348.636719 Z M 258.464844 214.601562 " clip-rule="nonzero"/></clipPath><clipPath id="4e6a8caf1e"><path d="M 258.464844 214.601562 L 380.3125 272.71875 L 316.386719 406.753906 L 194.535156 348.636719 Z M 258.464844 214.601562 " clip-rule="nonzero"/></clipPath><clipPath id="79a17a031e"><path d="M 258.464844 214.601562 L 380.3125 272.71875 L 316.386719 406.753906 L 194.535156 348.636719 Z M 258.464844 214.601562 " clip-rule="nonzero"/></clipPath><clipPath id="127738ed06"><path d="M 209 229 L 297 229 L 297 333 L 209 333 Z M 209 229 " clip-rule="nonzero"/></clipPath><clipPath id="23037b8086"><path d="M 258.464844 214.601562 L 380.3125 272.71875 L 316.386719 406.753906 L 194.535156 348.636719 Z M 258.464844 214.601562 " clip-rule="nonzero"/></clipPath><clipPath id="2b773bb106"><path d="M 258.464844 214.601562 L 380.3125 272.71875 L 316.386719 406.753906 L 194.535156 348.636719 Z M 258.464844 214.601562 " clip-rule="nonzero"/></clipPath><clipPath id="170d72a6b0"><path d="M 258.464844 214.601562 L 380.3125 272.71875 L 316.386719 406.753906 L 194.535156 348.636719 Z M 258.464844 214.601562 " clip-rule="nonzero"/></clipPath><clipPath id="88268f7b27"><path d="M 69 247 L 183 247 L 183 344 L 69 344 Z M 69 247 " clip-rule="nonzero"/></clipPath><clipPath id="9369e97c7e"><path d="M 8.738281 272.257812 L 130.839844 214.671875 L 194.183594 348.984375 L 72.082031 406.570312 Z M 8.738281 272.257812 " clip-rule="nonzero"/></clipPath><clipPath id="833a4fda38"><path d="M 130.988281 214.601562 L 8.886719 272.1875 L 72.230469 406.5 L 194.332031 348.914062 Z M 130.988281 214.601562 " clip-rule="nonzero"/></clipPath><clipPath id="d3e8ab54b4"><path d="M 130.988281 214.601562 L 8.886719 272.1875 L 72.230469 406.5 L 194.332031 348.914062 Z M 130.988281 214.601562 " clip-rule="nonzero"/></clipPath><clipPath id="7f244954f6"><path d="M 46 267 L 187 267 L 187 353 L 46 353 Z M 46 267 " clip-rule="nonzero"/></clipPath><clipPath id="032b2eae7f"><path d="M 8.738281 272.257812 L 130.839844 214.671875 L 194.183594 348.984375 L 72.082031 406.570312 Z M 8.738281 272.257812 " clip-rule="nonzero"/></clipPath><clipPath id="cca1f7453b"><path d="M 130.988281 214.601562 L 8.886719 272.1875 L 72.230469 406.5 L 194.332031 348.914062 Z M 130.988281 214.601562 " clip-rule="nonzero"/></clipPath><clipPath id="ffd60ec10d"><path d="M 130.988281 214.601562 L 8.886719 272.1875 L 72.230469 406.5 L 194.332031 348.914062 Z M 130.988281 214.601562 " clip-rule="nonzero"/></clipPath><clipPath id="fb22bd8ce1"><path d="M 92 229 L 180 229 L 180 334 L 92 334 Z M 92 229 " clip-rule="nonzero"/></clipPath><clipPath id="7494e81124"><path d="M 8.738281 272.257812 L 130.839844 214.671875 L 194.183594 348.984375 L 72.082031 406.570312 Z M 8.738281 272.257812 " clip-rule="nonzero"/></clipPath><clipPath id="318c216f51"><path d="M 130.988281 214.601562 L 8.886719 272.1875 L 72.230469 406.5 L 194.332031 348.914062 Z M 130.988281 214.601562 " clip-rule="nonzero"/></clipPath><clipPath id="0ee29add5b"><path d="M 130.988281 214.601562 L 8.886719 272.1875 L 72.230469 406.5 L 194.332031 348.914062 Z M 130.988281 214.601562 " clip-rule="nonzero"/></clipPath><clipPath id="9d978d009d"><path d="M 80 12.164062 L 269 12.164062 L 269 75 L 80 75 Z M 80 12.164062 " clip-rule="nonzero"/></clipPath><clipPath id="ecd3a31bc2"><path d="M 120 71 L 276 71 L 276 300.914062 L 120 300.914062 Z M 120 71 " clip-rule="nonzero"/></clipPath></defs><rect x="-37.5" width="450" fill="#ffffff" y="-37.499999" height="449.999989" fill-opacity="1"/><rect x="-37.5" width="450" fill="#000000" y="-37.499999" height="449.999989" fill-opacity="1"/><g clip-path="url(#f72c3c20f4)"><g clip-path="url(#a960f2b2e6)"><g clip-path="url(#c461b4156d)"><g clip-path="url(#c067a98940)"><path fill="#3871c1" d="M 319.070312 333.285156 L 311.714844 247.699219 C 311.714844 247.699219 303.121094 248.734375 292.957031 251.894531 L 293.691406 260.460938 C 296.433594 260.328125 299.328125 260.394531 302.367188 260.722656 L 308.707031 322.738281 C 308.707031 322.738281 238.382812 314.632812 205.898438 343.425781 C 205.898438 343.425781 246.496094 319.074219 319.070312 333.285156 " fill-opacity="1" fill-rule="nonzero"/></g></g></g></g><g clip-path="url(#6e5613b5a2)"><g clip-path="url(#eb615ecae1)"><g clip-path="url(#4e6a8caf1e)"><g clip-path="url(#79a17a031e)"><path fill="#2e3192" d="M 334.621094 267.414062 C 334.621094 267.414062 326.027344 268.445312 315.863281 271.609375 L 316.597656 280.175781 C 319.339844 280.042969 322.234375 280.109375 325.277344 280.433594 L 331.613281 342.453125 C 331.613281 342.453125 248.289062 323.703125 202.488281 352.4375 C 202.488281 352.4375 252.988281 334.761719 341.980469 353 L 334.621094 267.414062 " fill-opacity="1" fill-rule="nonzero"/></g></g></g></g><g clip-path="url(#127738ed06)"><g clip-path="url(#23037b8086)"><g clip-path="url(#2b773bb106)"><g clip-path="url(#170d72a6b0)"><path fill="#00adef" d="M 209.921875 332.804688 C 209.921875 332.804688 244.726562 305.136719 296.28125 314.722656 L 288.925781 229.136719 C 288.925781 229.136719 250.167969 233.78125 239.894531 253.625 C 239.894531 253.625 255.167969 239.539062 279.578125 242.15625 L 285.917969 304.171875 C 285.917969 304.171875 236.0625 302.40625 209.921875 332.804688 " fill-opacity="1" fill-rule="nonzero"/></g></g></g></g><g clip-path="url(#88268f7b27)"><g clip-path="url(#9369e97c7e)"><g clip-path="url(#833a4fda38)"><g clip-path="url(#d3e8ab54b4)"><path fill="#3871c1" d="M 69.867188 333.019531 L 77.59375 247.46875 C 77.59375 247.46875 86.183594 248.539062 96.335938 251.742188 L 95.5625 260.308594 C 92.820312 260.164062 89.921875 260.214844 86.882812 260.53125 L 80.273438 322.519531 C 80.273438 322.519531 150.632812 314.71875 182.992188 343.652344 C 182.992188 343.652344 142.503906 319.125 69.867188 333.019531 " fill-opacity="1" fill-rule="nonzero"/></g></g></g></g><g clip-path="url(#7f244954f6)"><g clip-path="url(#032b2eae7f)"><g clip-path="url(#cca1f7453b)"><g clip-path="url(#ffd60ec10d)"><path fill="#2e3192" d="M 54.601562 267.082031 C 54.601562 267.082031 63.191406 268.152344 73.339844 271.359375 L 72.566406 279.921875 C 69.828125 279.777344 66.929688 279.832031 63.890625 280.144531 L 57.28125 342.132812 C 57.28125 342.132812 140.6875 323.746094 186.363281 352.679688 C 186.363281 352.679688 135.941406 334.785156 46.871094 352.636719 L 54.601562 267.082031 " fill-opacity="1" fill-rule="nonzero"/></g></g></g></g><g clip-path="url(#fb22bd8ce1)"><g clip-path="url(#7494e81124)"><g clip-path="url(#318c216f51)"><g clip-path="url(#0ee29add5b)"><path fill="#00adef" d="M 179.015625 333.015625 C 179.015625 333.015625 144.332031 305.195312 92.734375 314.554688 L 100.464844 229.003906 C 100.464844 229.003906 139.199219 233.816406 149.386719 253.707031 C 149.386719 253.707031 134.171875 239.550781 109.753906 242.0625 L 103.144531 304.050781 C 103.144531 304.050781 153.007812 302.503906 179.015625 333.015625 " fill-opacity="1" fill-rule="nonzero"/></g></g></g></g><g clip-path="url(#9d978d009d)"><path fill="#00adef" d="M 268.804688 44.472656 C 268.601562 47.617188 266.40625 50.289062 263.4375 51.363281 L 201.328125 73.863281 C 200.46875 74.167969 199.574219 74.328125 198.667969 74.328125 C 197.773438 74.328125 196.871094 74.167969 196.019531 73.863281 L 138.21875 52.929688 C 136.390625 52.265625 135.5 50.167969 136.351562 48.367188 C 137.09375 46.796875 138.984375 46.132812 140.621094 46.722656 L 198.277344 67.605469 C 198.53125 67.699219 198.808594 67.699219 199.058594 67.605469 L 261.410156 45.023438 C 262.027344 44.800781 262.164062 44.320312 262.164062 43.957031 C 262.167969 43.65625 262.078125 43.121094 261.429688 42.878906 L 199.078125 19.070312 C 198.816406 18.96875 198.523438 18.96875 198.261719 19.070312 L 155.148438 35.53125 C 156.679688 36.078125 158.253906 36.675781 159.859375 37.324219 C 182.738281 46.53125 198.40625 38.789062 204.046875 35.070312 C 204.597656 34.707031 205.230469 34.527344 205.863281 34.527344 C 206.78125 34.527344 207.695312 34.914062 208.34375 35.648438 C 209.695312 37.167969 209.371094 39.523438 207.671875 40.636719 C 200.808594 45.136719 182.910156 53.773438 157.375 43.496094 C 121.601562 29.09375 107.539062 41.449219 103.074219 47.59375 L 107.167969 50.078125 L 97.121094 66.273438 C 94.578125 70.371094 89.253906 71.742188 85.050781 69.371094 C 80.605469 66.867188 79.125 61.175781 81.789062 56.824219 L 91.675781 40.691406 L 97.449219 44.191406 C 102.261719 37.542969 115.5 25.3125 144.699219 32.402344 L 195.890625 12.855469 C 197.679688 12.171875 199.65625 12.171875 201.449219 12.855469 L 263.804688 36.664062 C 267.023438 37.890625 269.027344 40.992188 268.804688 44.472656 Z M 268.804688 44.472656 " fill-opacity="1" fill-rule="nonzero"/></g><g clip-path="url(#ecd3a31bc2)"><path fill="#00adef" d="M 228.554688 71.632812 L 201.328125 81.492188 C 200.46875 81.800781 199.570312 81.957031 198.671875 81.957031 C 197.773438 81.957031 196.871094 81.800781 196.015625 81.492188 L 167.832031 71.28125 C 155.140625 115.1875 120.371094 150.652344 120.371094 150.652344 C 130.402344 162.417969 140.238281 177.460938 149.449219 194.195312 L 177.367188 254.417969 C 182.574219 267.773438 190.910156 288.265625 194.769531 300.800781 L 193.902344 236.914062 C 194.332031 227.449219 194.351562 179.753906 194.113281 158.824219 C 191.070312 157.28125 188.984375 154.132812 188.984375 150.488281 C 188.984375 145.386719 193.066406 141.246094 198.144531 141.140625 C 203.21875 141.246094 207.304688 145.382812 207.304688 150.488281 C 207.304688 154.132812 205.214844 157.28125 202.175781 158.824219 C 201.933594 179.753906 201.953125 227.449219 202.382812 236.914062 L 201.515625 300.800781 C 205.375 288.265625 213.710938 267.773438 218.921875 254.417969 L 246.835938 194.195312 C 256.046875 177.460938 265.882812 162.417969 275.914062 150.652344 C 275.914062 150.660156 241.332031 115.375 228.554688 71.632812 Z M 228.554688 71.632812 " fill-opacity="1" fill-rule="nonzero"/></g></svg>